<mxfile host="app.diagrams.net" modified="2023-04-23T23:50:17.345Z" agent="Mozilla/5.0 (Macintosh; Intel Mac OS X 10_15_7) AppleWebKit/605.1.15 (KHTML, like Gecko) Version/16.1 Safari/605.1.15" etag="T4Y6fQ8d5iUcyDMbCf5k" version="21.1.5" type="github" pages="3">
  <diagram name="第 1 页" id="AXh3GehicBw4GmVFm9w0">
    <mxGraphModel dx="2404" dy="822" grid="1" gridSize="10" guides="1" tooltips="1" connect="1" arrows="1" fold="1" page="1" pageScale="1" pageWidth="827" pageHeight="1169" math="0" shadow="0">
      <root>
        <mxCell id="0" />
        <mxCell id="1" parent="0" />
        <mxCell id="1-wVPtT3jSuCfqSQY2wI-1" value="双端统一开户" style="whiteSpace=wrap;html=1;aspect=fixed;" parent="1" vertex="1">
          <mxGeometry x="310" y="50" width="120" height="120" as="geometry" />
        </mxCell>
        <mxCell id="1-wVPtT3jSuCfqSQY2wI-16" value="大丰钱包" style="whiteSpace=wrap;html=1;aspect=fixed;" parent="1" vertex="1">
          <mxGeometry x="60" y="70" width="80" height="80" as="geometry" />
        </mxCell>
        <mxCell id="1-wVPtT3jSuCfqSQY2wI-17" value="大丰App" style="whiteSpace=wrap;html=1;aspect=fixed;" parent="1" vertex="1">
          <mxGeometry x="650" y="70" width="80" height="80" as="geometry" />
        </mxCell>
        <mxCell id="1-wVPtT3jSuCfqSQY2wI-18" value="" style="endArrow=classic;html=1;rounded=0;entryX=-0.017;entryY=0.325;entryDx=0;entryDy=0;exitX=1;exitY=0.25;exitDx=0;exitDy=0;entryPerimeter=0;" parent="1" source="1-wVPtT3jSuCfqSQY2wI-16" target="1-wVPtT3jSuCfqSQY2wI-1" edge="1">
          <mxGeometry width="50" height="50" relative="1" as="geometry">
            <mxPoint x="160" y="110" as="sourcePoint" />
            <mxPoint x="210" y="60" as="targetPoint" />
          </mxGeometry>
        </mxCell>
        <mxCell id="1-wVPtT3jSuCfqSQY2wI-24" value="开户" style="edgeLabel;html=1;align=center;verticalAlign=middle;resizable=0;points=[];" parent="1-wVPtT3jSuCfqSQY2wI-18" vertex="1" connectable="0">
          <mxGeometry x="0.0955" y="-1" relative="1" as="geometry">
            <mxPoint as="offset" />
          </mxGeometry>
        </mxCell>
        <mxCell id="1-wVPtT3jSuCfqSQY2wI-19" value="" style="endArrow=classic;html=1;rounded=0;entryX=1;entryY=0.308;entryDx=0;entryDy=0;entryPerimeter=0;exitX=0;exitY=0.25;exitDx=0;exitDy=0;" parent="1" source="1-wVPtT3jSuCfqSQY2wI-17" target="1-wVPtT3jSuCfqSQY2wI-1" edge="1">
          <mxGeometry width="50" height="50" relative="1" as="geometry">
            <mxPoint x="640" y="87" as="sourcePoint" />
            <mxPoint x="590" y="80" as="targetPoint" />
            <Array as="points" />
          </mxGeometry>
        </mxCell>
        <mxCell id="1-wVPtT3jSuCfqSQY2wI-25" value="开户" style="edgeLabel;html=1;align=center;verticalAlign=middle;resizable=0;points=[];" parent="1-wVPtT3jSuCfqSQY2wI-19" vertex="1" connectable="0">
          <mxGeometry x="-0.1271" y="-2" relative="1" as="geometry">
            <mxPoint as="offset" />
          </mxGeometry>
        </mxCell>
        <mxCell id="1-wVPtT3jSuCfqSQY2wI-22" value="" style="endArrow=classic;html=1;rounded=0;entryX=1.025;entryY=0.613;entryDx=0;entryDy=0;entryPerimeter=0;exitX=-0.033;exitY=0.575;exitDx=0;exitDy=0;exitPerimeter=0;" parent="1" source="1-wVPtT3jSuCfqSQY2wI-1" target="1-wVPtT3jSuCfqSQY2wI-16" edge="1">
          <mxGeometry width="50" height="50" relative="1" as="geometry">
            <mxPoint x="200" y="170" as="sourcePoint" />
            <mxPoint x="250" y="120" as="targetPoint" />
          </mxGeometry>
        </mxCell>
        <mxCell id="1-wVPtT3jSuCfqSQY2wI-27" value="jsapi" style="edgeLabel;html=1;align=center;verticalAlign=middle;resizable=0;points=[];" parent="1-wVPtT3jSuCfqSQY2wI-22" vertex="1" connectable="0">
          <mxGeometry x="-0.0241" y="-1" relative="1" as="geometry">
            <mxPoint as="offset" />
          </mxGeometry>
        </mxCell>
        <mxCell id="1-wVPtT3jSuCfqSQY2wI-23" value="" style="endArrow=classic;html=1;rounded=0;entryX=-0.012;entryY=0.625;entryDx=0;entryDy=0;exitX=1.025;exitY=0.558;exitDx=0;exitDy=0;exitPerimeter=0;entryPerimeter=0;" parent="1" source="1-wVPtT3jSuCfqSQY2wI-1" target="1-wVPtT3jSuCfqSQY2wI-17" edge="1">
          <mxGeometry width="50" height="50" relative="1" as="geometry">
            <mxPoint x="500" y="180" as="sourcePoint" />
            <mxPoint x="550" y="130" as="targetPoint" />
          </mxGeometry>
        </mxCell>
        <mxCell id="1-wVPtT3jSuCfqSQY2wI-26" value="jsapi" style="edgeLabel;html=1;align=center;verticalAlign=middle;resizable=0;points=[];" parent="1-wVPtT3jSuCfqSQY2wI-23" vertex="1" connectable="0">
          <mxGeometry x="0.0647" relative="1" as="geometry">
            <mxPoint as="offset" />
          </mxGeometry>
        </mxCell>
        <mxCell id="1-wVPtT3jSuCfqSQY2wI-28" value="后台接口" style="whiteSpace=wrap;html=1;aspect=fixed;" parent="1" vertex="1">
          <mxGeometry x="310" y="250" width="120" height="120" as="geometry" />
        </mxCell>
        <mxCell id="1-wVPtT3jSuCfqSQY2wI-29" value="" style="endArrow=classic;html=1;rounded=0;entryX=0.5;entryY=0;entryDx=0;entryDy=0;exitX=0.5;exitY=1;exitDx=0;exitDy=0;" parent="1" source="1-wVPtT3jSuCfqSQY2wI-1" target="1-wVPtT3jSuCfqSQY2wI-28" edge="1">
          <mxGeometry width="50" height="50" relative="1" as="geometry">
            <mxPoint x="490" y="250" as="sourcePoint" />
            <mxPoint x="540" y="200" as="targetPoint" />
          </mxGeometry>
        </mxCell>
        <mxCell id="1-wVPtT3jSuCfqSQY2wI-30" value="请求头" style="edgeLabel;html=1;align=center;verticalAlign=middle;resizable=0;points=[];" parent="1-wVPtT3jSuCfqSQY2wI-29" vertex="1" connectable="0">
          <mxGeometry x="-0.05" y="2" relative="1" as="geometry">
            <mxPoint as="offset" />
          </mxGeometry>
        </mxCell>
        <mxCell id="1-wVPtT3jSuCfqSQY2wI-35" value="" style="rounded=0;whiteSpace=wrap;html=1;" parent="1" vertex="1">
          <mxGeometry x="80" y="750" width="440" height="120" as="geometry" />
        </mxCell>
        <mxCell id="1-wVPtT3jSuCfqSQY2wI-36" value="" style="rounded=0;whiteSpace=wrap;html=1;" parent="1" vertex="1">
          <mxGeometry x="80" y="570" width="440" height="150" as="geometry" />
        </mxCell>
        <mxCell id="1-wVPtT3jSuCfqSQY2wI-37" value="" style="rounded=0;whiteSpace=wrap;html=1;" parent="1" vertex="1">
          <mxGeometry x="80" y="900" width="440" height="130" as="geometry" />
        </mxCell>
        <mxCell id="1-wVPtT3jSuCfqSQY2wI-38" value="WX" style="whiteSpace=wrap;html=1;aspect=fixed;" parent="1" vertex="1">
          <mxGeometry x="110" y="925" width="80" height="80" as="geometry" />
        </mxCell>
        <mxCell id="1-wVPtT3jSuCfqSQY2wI-39" value="APP" style="whiteSpace=wrap;html=1;aspect=fixed;" parent="1" vertex="1">
          <mxGeometry x="220" y="925" width="80" height="80" as="geometry" />
        </mxCell>
        <mxCell id="1-wVPtT3jSuCfqSQY2wI-40" value="登录" style="whiteSpace=wrap;html=1;aspect=fixed;" parent="1" vertex="1">
          <mxGeometry x="110" y="770" width="80" height="80" as="geometry" />
        </mxCell>
        <mxCell id="1-wVPtT3jSuCfqSQY2wI-41" value="网络http" style="whiteSpace=wrap;html=1;aspect=fixed;" parent="1" vertex="1">
          <mxGeometry x="220" y="770" width="80" height="80" as="geometry" />
        </mxCell>
        <mxCell id="1-wVPtT3jSuCfqSQY2wI-42" value="SDK" style="whiteSpace=wrap;html=1;aspect=fixed;" parent="1" vertex="1">
          <mxGeometry x="334" y="770" width="80" height="80" as="geometry" />
        </mxCell>
        <mxCell id="1-wVPtT3jSuCfqSQY2wI-43" value="开户" style="whiteSpace=wrap;html=1;aspect=fixed;" parent="1" vertex="1">
          <mxGeometry x="110" y="605" width="80" height="80" as="geometry" />
        </mxCell>
        <mxCell id="1-wVPtT3jSuCfqSQY2wI-44" value="交易" style="whiteSpace=wrap;html=1;aspect=fixed;" parent="1" vertex="1">
          <mxGeometry x="220" y="605" width="80" height="80" as="geometry" />
        </mxCell>
        <mxCell id="1-wVPtT3jSuCfqSQY2wI-45" value="环境" style="text;html=1;align=center;verticalAlign=middle;resizable=0;points=[];autosize=1;strokeColor=none;fillColor=none;rotation=0;" parent="1" vertex="1">
          <mxGeometry x="460" y="795" width="50" height="30" as="geometry" />
        </mxCell>
        <mxCell id="QVazyzPKcYnizNOQCLx8-1" value="....." style="whiteSpace=wrap;html=1;aspect=fixed;" vertex="1" parent="1">
          <mxGeometry x="340" y="605" width="80" height="80" as="geometry" />
        </mxCell>
        <mxCell id="cqXWIhA1JVNvZW8O6QzL-1" value="login" style="shape=note;whiteSpace=wrap;html=1;backgroundOutline=1;darkOpacity=0.05;" vertex="1" parent="1">
          <mxGeometry x="740" y="520" width="140" height="170" as="geometry" />
        </mxCell>
        <mxCell id="cqXWIhA1JVNvZW8O6QzL-2" value="" style="strokeWidth=2;html=1;shape=mxgraph.flowchart.annotation_2;align=left;labelPosition=right;pointerEvents=1;" vertex="1" parent="1">
          <mxGeometry x="520" y="620" width="220" height="415" as="geometry" />
        </mxCell>
        <mxCell id="cqXWIhA1JVNvZW8O6QzL-3" value="" style="line;strokeWidth=1;fillColor=none;align=left;verticalAlign=middle;spacingTop=-1;spacingLeft=3;spacingRight=3;rotatable=0;labelPosition=right;points=[];portConstraint=eastwest;strokeColor=inherit;" vertex="1" parent="1">
          <mxGeometry x="620" y="823.5" width="120" height="8" as="geometry" />
        </mxCell>
        <mxCell id="cqXWIhA1JVNvZW8O6QzL-4" value="getCommonParams" style="shape=note;whiteSpace=wrap;html=1;backgroundOutline=1;darkOpacity=0.05;" vertex="1" parent="1">
          <mxGeometry x="740" y="732.5" width="140" height="190" as="geometry" />
        </mxCell>
        <mxCell id="cqXWIhA1JVNvZW8O6QzL-5" value="chooseImage&lt;br&gt;previewImage&lt;br&gt;closeWindow&lt;br&gt;setPageTitle&lt;br&gt;disableBounceScroll" style="shape=note;whiteSpace=wrap;html=1;backgroundOutline=1;darkOpacity=0.05;" vertex="1" parent="1">
          <mxGeometry x="740" y="980" width="140" height="170" as="geometry" />
        </mxCell>
        <mxCell id="cqXWIhA1JVNvZW8O6QzL-6" value="jsapi" style="text;html=1;align=center;verticalAlign=middle;resizable=0;points=[];autosize=1;strokeColor=none;fillColor=none;" vertex="1" parent="1">
          <mxGeometry x="550" y="795" width="50" height="30" as="geometry" />
        </mxCell>
        <mxCell id="cqXWIhA1JVNvZW8O6QzL-7" value="登录" style="text;html=1;align=center;verticalAlign=middle;resizable=0;points=[];autosize=1;strokeColor=none;fillColor=none;" vertex="1" parent="1">
          <mxGeometry x="655" y="590" width="50" height="30" as="geometry" />
        </mxCell>
        <mxCell id="cqXWIhA1JVNvZW8O6QzL-8" value="网络http" style="text;html=1;align=center;verticalAlign=middle;resizable=0;points=[];autosize=1;strokeColor=none;fillColor=none;" vertex="1" parent="1">
          <mxGeometry x="650" y="793.5" width="70" height="30" as="geometry" />
        </mxCell>
        <mxCell id="cqXWIhA1JVNvZW8O6QzL-9" value="SDK" style="text;html=1;align=center;verticalAlign=middle;resizable=0;points=[];autosize=1;strokeColor=none;fillColor=none;" vertex="1" parent="1">
          <mxGeometry x="660" y="1000" width="50" height="30" as="geometry" />
        </mxCell>
        <mxCell id="cqXWIhA1JVNvZW8O6QzL-10" value="JSAPI" style="rounded=0;whiteSpace=wrap;html=1;" vertex="1" parent="1">
          <mxGeometry x="-410" y="751.5" width="280" height="118.5" as="geometry" />
        </mxCell>
        <mxCell id="cqXWIhA1JVNvZW8O6QzL-11" value="&lt;font style=&quot;font-size: 36px;&quot;&gt;大丰H5&lt;/font&gt;" style="text;html=1;align=center;verticalAlign=middle;resizable=0;points=[];autosize=1;strokeColor=none;fillColor=none;" vertex="1" parent="1">
          <mxGeometry x="220" y="490" width="140" height="60" as="geometry" />
        </mxCell>
        <mxCell id="cqXWIhA1JVNvZW8O6QzL-14" value="&lt;span style=&quot;font-size: 36px;&quot;&gt;APP&lt;/span&gt;" style="text;html=1;align=center;verticalAlign=middle;resizable=0;points=[];autosize=1;strokeColor=none;fillColor=none;" vertex="1" parent="1">
          <mxGeometry x="-340" y="500" width="100" height="60" as="geometry" />
        </mxCell>
        <mxCell id="cqXWIhA1JVNvZW8O6QzL-15" value="" style="endArrow=open;endFill=1;endSize=12;html=1;rounded=0;entryX=0;entryY=0.5;entryDx=0;entryDy=0;" edge="1" parent="1" target="1-wVPtT3jSuCfqSQY2wI-35">
          <mxGeometry width="160" relative="1" as="geometry">
            <mxPoint x="-130" y="810" as="sourcePoint" />
            <mxPoint x="30" y="810" as="targetPoint" />
          </mxGeometry>
        </mxCell>
        <mxCell id="cqXWIhA1JVNvZW8O6QzL-16" value="JSBridge" style="edgeLabel;html=1;align=center;verticalAlign=middle;resizable=0;points=[];" vertex="1" connectable="0" parent="cqXWIhA1JVNvZW8O6QzL-15">
          <mxGeometry x="-0.019" y="-1" relative="1" as="geometry">
            <mxPoint as="offset" />
          </mxGeometry>
        </mxCell>
      </root>
    </mxGraphModel>
  </diagram>
  <diagram id="Os8G5Y0naBU24yG99HUs" name="第 2 页">
    <mxGraphModel dx="1577" dy="1991" grid="1" gridSize="10" guides="1" tooltips="1" connect="1" arrows="1" fold="1" page="1" pageScale="1" pageWidth="827" pageHeight="1169" math="0" shadow="0">
      <root>
        <mxCell id="0" />
        <mxCell id="1" parent="0" />
        <mxCell id="JFcsV1Ie_CkORW1EW0Ks-28" value="" style="rounded=1;whiteSpace=wrap;html=1;" vertex="1" parent="1">
          <mxGeometry x="110" y="240" width="1550" height="400" as="geometry" />
        </mxCell>
        <mxCell id="JFcsV1Ie_CkORW1EW0Ks-23" value="h5-weixin" style="whiteSpace=wrap;html=1;aspect=fixed;" vertex="1" parent="1">
          <mxGeometry x="690" y="535" width="80" height="80" as="geometry" />
        </mxCell>
        <mxCell id="JFcsV1Ie_CkORW1EW0Ks-24" value="h5-zxg" style="whiteSpace=wrap;html=1;aspect=fixed;" vertex="1" parent="1">
          <mxGeometry x="800" y="535" width="80" height="80" as="geometry" />
        </mxCell>
        <mxCell id="JFcsV1Ie_CkORW1EW0Ks-25" value="mp-weixin" style="whiteSpace=wrap;html=1;aspect=fixed;" vertex="1" parent="1">
          <mxGeometry x="920" y="535" width="80" height="80" as="geometry" />
        </mxCell>
        <mxCell id="JFcsV1Ie_CkORW1EW0Ks-31" value="" style="rounded=1;whiteSpace=wrap;html=1;" vertex="1" parent="1">
          <mxGeometry x="580" y="-180" width="570" height="330" as="geometry" />
        </mxCell>
        <mxCell id="JFcsV1Ie_CkORW1EW0Ks-26" value="h5-df" style="whiteSpace=wrap;html=1;aspect=fixed;" vertex="1" parent="1">
          <mxGeometry x="1040" y="535" width="80" height="80" as="geometry" />
        </mxCell>
        <mxCell id="JFcsV1Ie_CkORW1EW0Ks-29" value="业务层" style="text;html=1;align=center;verticalAlign=middle;resizable=0;points=[];autosize=1;strokeColor=none;fillColor=none;" vertex="1" parent="1">
          <mxGeometry x="120" y="310" width="60" height="30" as="geometry" />
        </mxCell>
        <mxCell id="JFcsV1Ie_CkORW1EW0Ks-32" value="h5-weixin" style="whiteSpace=wrap;html=1;aspect=fixed;" vertex="1" parent="1">
          <mxGeometry x="672" y="-155" width="80" height="80" as="geometry" />
        </mxCell>
        <mxCell id="JFcsV1Ie_CkORW1EW0Ks-33" value="h5-zxg" style="whiteSpace=wrap;html=1;aspect=fixed;" vertex="1" parent="1">
          <mxGeometry x="782" y="-155" width="80" height="80" as="geometry" />
        </mxCell>
        <mxCell id="JFcsV1Ie_CkORW1EW0Ks-34" value="mp-weixin" style="whiteSpace=wrap;html=1;aspect=fixed;" vertex="1" parent="1">
          <mxGeometry x="902" y="-155" width="80" height="80" as="geometry" />
        </mxCell>
        <mxCell id="JFcsV1Ie_CkORW1EW0Ks-35" value="h5-df" style="whiteSpace=wrap;html=1;aspect=fixed;" vertex="1" parent="1">
          <mxGeometry x="1022" y="-155" width="80" height="80" as="geometry" />
        </mxCell>
        <mxCell id="JFcsV1Ie_CkORW1EW0Ks-36" value="数据层" style="text;html=1;align=center;verticalAlign=middle;resizable=0;points=[];autosize=1;strokeColor=none;fillColor=none;" vertex="1" parent="1">
          <mxGeometry x="591" y="-130" width="60" height="30" as="geometry" />
        </mxCell>
        <mxCell id="JFcsV1Ie_CkORW1EW0Ks-18" value="&lt;p style=&quot;margin:0px;margin-top:4px;text-align:center;&quot;&gt;&lt;i&gt;&amp;lt;&amp;lt;Interface&amp;gt;&amp;gt;&lt;/i&gt;&lt;br&gt;&lt;b&gt;Interface&lt;/b&gt;&lt;/p&gt;&lt;hr size=&quot;1&quot;&gt;&lt;p style=&quot;margin:0px;margin-left:4px;&quot;&gt;+&amp;nbsp;jsApiList: Array&lt;/p&gt;&lt;p style=&quot;margin:0px;margin-left:4px;&quot;&gt;+&amp;nbsp;sdk:&amp;nbsp;any&lt;/p&gt;&lt;hr size=&quot;1&quot;&gt;&lt;p style=&quot;margin:0px;margin-left:4px;&quot;&gt;+&amp;nbsp;initSdk()&lt;/p&gt;" style="verticalAlign=top;align=left;overflow=fill;fontSize=12;fontFamily=Helvetica;html=1;whiteSpace=wrap;" vertex="1" parent="1">
          <mxGeometry x="780" y="-20" width="190" height="140" as="geometry" />
        </mxCell>
        <mxCell id="JFcsV1Ie_CkORW1EW0Ks-41" value="宿主类" style="swimlane;fontStyle=1;align=center;verticalAlign=top;childLayout=stackLayout;horizontal=1;startSize=26;horizontalStack=0;resizeParent=1;resizeParentMax=0;resizeLast=0;collapsible=1;marginBottom=0;whiteSpace=wrap;html=1;" vertex="1" parent="1">
          <mxGeometry x="815" y="270" width="160" height="190" as="geometry">
            <mxRectangle x="316" y="240" width="70" height="30" as="alternateBounds" />
          </mxGeometry>
        </mxCell>
        <mxCell id="JFcsV1Ie_CkORW1EW0Ks-42" value="+&amp;nbsp;sdk:&amp;nbsp;any" style="text;strokeColor=none;fillColor=none;align=left;verticalAlign=top;spacingLeft=4;spacingRight=4;overflow=hidden;rotatable=0;points=[[0,0.5],[1,0.5]];portConstraint=eastwest;whiteSpace=wrap;html=1;" vertex="1" parent="JFcsV1Ie_CkORW1EW0Ks-41">
          <mxGeometry y="26" width="160" height="26" as="geometry" />
        </mxCell>
        <mxCell id="JFcsV1Ie_CkORW1EW0Ks-48" value="+&amp;nbsp;login:&amp;nbsp;any" style="text;strokeColor=none;fillColor=none;align=left;verticalAlign=top;spacingLeft=4;spacingRight=4;overflow=hidden;rotatable=0;points=[[0,0.5],[1,0.5]];portConstraint=eastwest;whiteSpace=wrap;html=1;" vertex="1" parent="JFcsV1Ie_CkORW1EW0Ks-41">
          <mxGeometry y="52" width="160" height="26" as="geometry" />
        </mxCell>
        <mxCell id="JFcsV1Ie_CkORW1EW0Ks-49" value="+&amp;nbsp;showTabBar:&amp;nbsp;any" style="text;strokeColor=none;fillColor=none;align=left;verticalAlign=top;spacingLeft=4;spacingRight=4;overflow=hidden;rotatable=0;points=[[0,0.5],[1,0.5]];portConstraint=eastwest;whiteSpace=wrap;html=1;" vertex="1" parent="JFcsV1Ie_CkORW1EW0Ks-41">
          <mxGeometry y="78" width="160" height="26" as="geometry" />
        </mxCell>
        <mxCell id="JFcsV1Ie_CkORW1EW0Ks-50" value="+&amp;nbsp;onLaunch: () =&amp;gt; void" style="text;strokeColor=none;fillColor=none;align=left;verticalAlign=top;spacingLeft=4;spacingRight=4;overflow=hidden;rotatable=0;points=[[0,0.5],[1,0.5]];portConstraint=eastwest;whiteSpace=wrap;html=1;" vertex="1" parent="JFcsV1Ie_CkORW1EW0Ks-41">
          <mxGeometry y="104" width="160" height="26" as="geometry" />
        </mxCell>
        <mxCell id="JFcsV1Ie_CkORW1EW0Ks-51" value="+&amp;nbsp;onBind: () =&amp;gt; void" style="text;strokeColor=none;fillColor=none;align=left;verticalAlign=top;spacingLeft=4;spacingRight=4;overflow=hidden;rotatable=0;points=[[0,0.5],[1,0.5]];portConstraint=eastwest;whiteSpace=wrap;html=1;" vertex="1" parent="JFcsV1Ie_CkORW1EW0Ks-41">
          <mxGeometry y="130" width="160" height="26" as="geometry" />
        </mxCell>
        <mxCell id="JFcsV1Ie_CkORW1EW0Ks-52" value="+&amp;nbsp;onUnBind: () =&amp;gt; void" style="text;strokeColor=none;fillColor=none;align=left;verticalAlign=top;spacingLeft=4;spacingRight=4;overflow=hidden;rotatable=0;points=[[0,0.5],[1,0.5]];portConstraint=eastwest;whiteSpace=wrap;html=1;" vertex="1" parent="JFcsV1Ie_CkORW1EW0Ks-41">
          <mxGeometry y="156" width="160" height="26" as="geometry" />
        </mxCell>
        <mxCell id="JFcsV1Ie_CkORW1EW0Ks-43" value="" style="line;strokeWidth=1;fillColor=none;align=left;verticalAlign=middle;spacingTop=-1;spacingLeft=3;spacingRight=3;rotatable=0;labelPosition=right;points=[];portConstraint=eastwest;strokeColor=inherit;" vertex="1" parent="JFcsV1Ie_CkORW1EW0Ks-41">
          <mxGeometry y="182" width="160" height="8" as="geometry" />
        </mxCell>
        <mxCell id="JFcsV1Ie_CkORW1EW0Ks-46" value="" style="endArrow=block;endFill=1;html=1;edgeStyle=orthogonalEdgeStyle;align=left;verticalAlign=top;rounded=0;entryX=0.5;entryY=1;entryDx=0;entryDy=0;exitX=0.494;exitY=-0.002;exitDx=0;exitDy=0;exitPerimeter=0;" edge="1" parent="1" source="JFcsV1Ie_CkORW1EW0Ks-28" target="JFcsV1Ie_CkORW1EW0Ks-18">
          <mxGeometry x="-1" relative="1" as="geometry">
            <mxPoint x="875" y="230" as="sourcePoint" />
            <mxPoint x="290" y="270" as="targetPoint" />
          </mxGeometry>
        </mxCell>
        <mxCell id="JFcsV1Ie_CkORW1EW0Ks-47" value="1" style="edgeLabel;resizable=0;html=1;align=left;verticalAlign=bottom;" connectable="0" vertex="1" parent="JFcsV1Ie_CkORW1EW0Ks-46">
          <mxGeometry x="-1" relative="1" as="geometry" />
        </mxCell>
        <mxCell id="JFcsV1Ie_CkORW1EW0Ks-117" value="1" style="edgeLabel;html=1;align=center;verticalAlign=middle;resizable=0;points=[];" vertex="1" connectable="0" parent="JFcsV1Ie_CkORW1EW0Ks-46">
          <mxGeometry x="0.6632" y="-3" relative="1" as="geometry">
            <mxPoint as="offset" />
          </mxGeometry>
        </mxCell>
        <mxCell id="JFcsV1Ie_CkORW1EW0Ks-55" value="Extends" style="endArrow=block;endSize=16;endFill=0;html=1;rounded=0;exitX=0.5;exitY=0;exitDx=0;exitDy=0;" edge="1" parent="1" source="JFcsV1Ie_CkORW1EW0Ks-25">
          <mxGeometry width="160" relative="1" as="geometry">
            <mxPoint x="879" y="500" as="sourcePoint" />
            <mxPoint x="909" y="460" as="targetPoint" />
          </mxGeometry>
        </mxCell>
        <mxCell id="JFcsV1Ie_CkORW1EW0Ks-56" value="Extends" style="endArrow=block;endSize=16;endFill=0;html=1;rounded=0;exitX=0.5;exitY=0;exitDx=0;exitDy=0;" edge="1" parent="1" source="JFcsV1Ie_CkORW1EW0Ks-24">
          <mxGeometry width="160" relative="1" as="geometry">
            <mxPoint x="905" y="470" as="sourcePoint" />
            <mxPoint x="869" y="460" as="targetPoint" />
          </mxGeometry>
        </mxCell>
        <mxCell id="JFcsV1Ie_CkORW1EW0Ks-57" value="Extends" style="endArrow=block;endSize=16;endFill=0;html=1;rounded=0;exitX=0.5;exitY=0;exitDx=0;exitDy=0;entryX=0.819;entryY=1;entryDx=0;entryDy=0;entryPerimeter=0;" edge="1" parent="1" source="JFcsV1Ie_CkORW1EW0Ks-26" target="JFcsV1Ie_CkORW1EW0Ks-43">
          <mxGeometry width="160" relative="1" as="geometry">
            <mxPoint x="915" y="480" as="sourcePoint" />
            <mxPoint x="1089" y="530" as="targetPoint" />
          </mxGeometry>
        </mxCell>
        <mxCell id="JFcsV1Ie_CkORW1EW0Ks-58" value="Extends" style="endArrow=block;endSize=16;endFill=0;html=1;rounded=0;exitX=0.5;exitY=0;exitDx=0;exitDy=0;" edge="1" parent="1" source="JFcsV1Ie_CkORW1EW0Ks-23">
          <mxGeometry width="160" relative="1" as="geometry">
            <mxPoint x="925" y="490" as="sourcePoint" />
            <mxPoint x="839" y="460" as="targetPoint" />
          </mxGeometry>
        </mxCell>
        <mxCell id="JFcsV1Ie_CkORW1EW0Ks-61" value="" style="endArrow=block;dashed=1;endFill=0;endSize=12;html=1;rounded=0;entryX=0.25;entryY=0;entryDx=0;entryDy=0;exitX=0.5;exitY=1;exitDx=0;exitDy=0;" edge="1" parent="1" source="JFcsV1Ie_CkORW1EW0Ks-33" target="JFcsV1Ie_CkORW1EW0Ks-18">
          <mxGeometry width="160" relative="1" as="geometry">
            <mxPoint x="660" y="-30" as="sourcePoint" />
            <mxPoint x="820" y="-30" as="targetPoint" />
          </mxGeometry>
        </mxCell>
        <mxCell id="JFcsV1Ie_CkORW1EW0Ks-62" value="" style="endArrow=block;dashed=1;endFill=0;endSize=12;html=1;rounded=0;entryX=0;entryY=0;entryDx=0;entryDy=0;exitX=0.5;exitY=1;exitDx=0;exitDy=0;" edge="1" parent="1" source="JFcsV1Ie_CkORW1EW0Ks-32" target="JFcsV1Ie_CkORW1EW0Ks-18">
          <mxGeometry width="160" relative="1" as="geometry">
            <mxPoint x="832" y="-65" as="sourcePoint" />
            <mxPoint x="885" y="-10" as="targetPoint" />
          </mxGeometry>
        </mxCell>
        <mxCell id="JFcsV1Ie_CkORW1EW0Ks-63" value="" style="endArrow=block;dashed=1;endFill=0;endSize=12;html=1;rounded=0;entryX=0.75;entryY=0;entryDx=0;entryDy=0;exitX=0.425;exitY=0.988;exitDx=0;exitDy=0;exitPerimeter=0;" edge="1" parent="1" source="JFcsV1Ie_CkORW1EW0Ks-34" target="JFcsV1Ie_CkORW1EW0Ks-18">
          <mxGeometry width="160" relative="1" as="geometry">
            <mxPoint x="832" y="-65" as="sourcePoint" />
            <mxPoint x="838" y="-10" as="targetPoint" />
          </mxGeometry>
        </mxCell>
        <mxCell id="JFcsV1Ie_CkORW1EW0Ks-64" value="" style="endArrow=block;dashed=1;endFill=0;endSize=12;html=1;rounded=0;entryX=1;entryY=0;entryDx=0;entryDy=0;exitX=0.5;exitY=1;exitDx=0;exitDy=0;" edge="1" parent="1" source="JFcsV1Ie_CkORW1EW0Ks-35" target="JFcsV1Ie_CkORW1EW0Ks-18">
          <mxGeometry width="160" relative="1" as="geometry">
            <mxPoint x="842" y="-55" as="sourcePoint" />
            <mxPoint x="848" as="targetPoint" />
          </mxGeometry>
        </mxCell>
        <mxCell id="JFcsV1Ie_CkORW1EW0Ks-100" value="h5-weixin" style="whiteSpace=wrap;html=1;aspect=fixed;" vertex="1" parent="1">
          <mxGeometry x="190" y="535" width="80" height="80" as="geometry" />
        </mxCell>
        <mxCell id="JFcsV1Ie_CkORW1EW0Ks-101" value="h5-zxg" style="whiteSpace=wrap;html=1;aspect=fixed;" vertex="1" parent="1">
          <mxGeometry x="300" y="535" width="80" height="80" as="geometry" />
        </mxCell>
        <mxCell id="JFcsV1Ie_CkORW1EW0Ks-102" value="mp-weixin" style="whiteSpace=wrap;html=1;aspect=fixed;" vertex="1" parent="1">
          <mxGeometry x="420" y="535" width="80" height="80" as="geometry" />
        </mxCell>
        <mxCell id="JFcsV1Ie_CkORW1EW0Ks-103" value="h5-df" style="whiteSpace=wrap;html=1;aspect=fixed;" vertex="1" parent="1">
          <mxGeometry x="540" y="535" width="80" height="80" as="geometry" />
        </mxCell>
        <mxCell id="JFcsV1Ie_CkORW1EW0Ks-104" value="SDK" style="swimlane;fontStyle=1;align=center;verticalAlign=top;childLayout=stackLayout;horizontal=1;startSize=26;horizontalStack=0;resizeParent=1;resizeParentMax=0;resizeLast=0;collapsible=1;marginBottom=0;whiteSpace=wrap;html=1;" vertex="1" parent="1">
          <mxGeometry x="317" y="290" width="160" height="164" as="geometry">
            <mxRectangle x="316" y="240" width="70" height="30" as="alternateBounds" />
          </mxGeometry>
        </mxCell>
        <mxCell id="JFcsV1Ie_CkORW1EW0Ks-105" value="+ &amp;nbsp;sdk:&amp;nbsp;any" style="text;strokeColor=none;fillColor=none;align=left;verticalAlign=top;spacingLeft=4;spacingRight=4;overflow=hidden;rotatable=0;points=[[0,0.5],[1,0.5]];portConstraint=eastwest;whiteSpace=wrap;html=1;" vertex="1" parent="JFcsV1Ie_CkORW1EW0Ks-104">
          <mxGeometry y="26" width="160" height="26" as="geometry" />
        </mxCell>
        <mxCell id="JFcsV1Ie_CkORW1EW0Ks-118" value="+&amp;nbsp;chooseImage:&amp;nbsp;any" style="text;strokeColor=none;fillColor=none;align=left;verticalAlign=top;spacingLeft=4;spacingRight=4;overflow=hidden;rotatable=0;points=[[0,0.5],[1,0.5]];portConstraint=eastwest;whiteSpace=wrap;html=1;" vertex="1" parent="JFcsV1Ie_CkORW1EW0Ks-104">
          <mxGeometry y="52" width="160" height="26" as="geometry" />
        </mxCell>
        <mxCell id="JFcsV1Ie_CkORW1EW0Ks-106" value="+&amp;nbsp;previewImage:&amp;nbsp;any" style="text;strokeColor=none;fillColor=none;align=left;verticalAlign=top;spacingLeft=4;spacingRight=4;overflow=hidden;rotatable=0;points=[[0,0.5],[1,0.5]];portConstraint=eastwest;whiteSpace=wrap;html=1;" vertex="1" parent="JFcsV1Ie_CkORW1EW0Ks-104">
          <mxGeometry y="78" width="160" height="26" as="geometry" />
        </mxCell>
        <mxCell id="JFcsV1Ie_CkORW1EW0Ks-107" value="+&amp;nbsp;closeWindow:&amp;nbsp;any" style="text;strokeColor=none;fillColor=none;align=left;verticalAlign=top;spacingLeft=4;spacingRight=4;overflow=hidden;rotatable=0;points=[[0,0.5],[1,0.5]];portConstraint=eastwest;whiteSpace=wrap;html=1;" vertex="1" parent="JFcsV1Ie_CkORW1EW0Ks-104">
          <mxGeometry y="104" width="160" height="26" as="geometry" />
        </mxCell>
        <mxCell id="JFcsV1Ie_CkORW1EW0Ks-108" value="+&amp;nbsp;openHorizonWebView:&amp;nbsp;any" style="text;strokeColor=none;fillColor=none;align=left;verticalAlign=top;spacingLeft=4;spacingRight=4;overflow=hidden;rotatable=0;points=[[0,0.5],[1,0.5]];portConstraint=eastwest;whiteSpace=wrap;html=1;" vertex="1" parent="JFcsV1Ie_CkORW1EW0Ks-104">
          <mxGeometry y="130" width="160" height="26" as="geometry" />
        </mxCell>
        <mxCell id="JFcsV1Ie_CkORW1EW0Ks-111" value="" style="line;strokeWidth=1;fillColor=none;align=left;verticalAlign=middle;spacingTop=-1;spacingLeft=3;spacingRight=3;rotatable=0;labelPosition=right;points=[];portConstraint=eastwest;strokeColor=inherit;" vertex="1" parent="JFcsV1Ie_CkORW1EW0Ks-104">
          <mxGeometry y="156" width="160" height="8" as="geometry" />
        </mxCell>
        <mxCell id="JFcsV1Ie_CkORW1EW0Ks-112" value="Extends" style="endArrow=block;endSize=16;endFill=0;html=1;rounded=0;exitX=0.5;exitY=0;exitDx=0;exitDy=0;" edge="1" parent="1" source="JFcsV1Ie_CkORW1EW0Ks-102">
          <mxGeometry width="160" relative="1" as="geometry">
            <mxPoint x="379" y="500" as="sourcePoint" />
            <mxPoint x="409" y="460" as="targetPoint" />
          </mxGeometry>
        </mxCell>
        <mxCell id="JFcsV1Ie_CkORW1EW0Ks-113" value="Extends" style="endArrow=block;endSize=16;endFill=0;html=1;rounded=0;exitX=0.5;exitY=0;exitDx=0;exitDy=0;" edge="1" parent="1" source="JFcsV1Ie_CkORW1EW0Ks-101">
          <mxGeometry width="160" relative="1" as="geometry">
            <mxPoint x="405" y="470" as="sourcePoint" />
            <mxPoint x="369" y="460" as="targetPoint" />
          </mxGeometry>
        </mxCell>
        <mxCell id="JFcsV1Ie_CkORW1EW0Ks-114" value="Extends" style="endArrow=block;endSize=16;endFill=0;html=1;rounded=0;exitX=0.5;exitY=0;exitDx=0;exitDy=0;entryX=0.819;entryY=1;entryDx=0;entryDy=0;entryPerimeter=0;" edge="1" parent="1" source="JFcsV1Ie_CkORW1EW0Ks-103" target="JFcsV1Ie_CkORW1EW0Ks-111">
          <mxGeometry width="160" relative="1" as="geometry">
            <mxPoint x="415" y="480" as="sourcePoint" />
            <mxPoint x="589" y="530" as="targetPoint" />
          </mxGeometry>
        </mxCell>
        <mxCell id="JFcsV1Ie_CkORW1EW0Ks-115" value="Extends" style="endArrow=block;endSize=16;endFill=0;html=1;rounded=0;exitX=0.5;exitY=0;exitDx=0;exitDy=0;" edge="1" parent="1" source="JFcsV1Ie_CkORW1EW0Ks-100">
          <mxGeometry width="160" relative="1" as="geometry">
            <mxPoint x="425" y="490" as="sourcePoint" />
            <mxPoint x="339" y="460" as="targetPoint" />
          </mxGeometry>
        </mxCell>
        <mxCell id="JFcsV1Ie_CkORW1EW0Ks-119" value="h5-weixin" style="whiteSpace=wrap;html=1;aspect=fixed;" vertex="1" parent="1">
          <mxGeometry x="1200" y="535" width="80" height="80" as="geometry" />
        </mxCell>
        <mxCell id="JFcsV1Ie_CkORW1EW0Ks-120" value="h5-zxg" style="whiteSpace=wrap;html=1;aspect=fixed;" vertex="1" parent="1">
          <mxGeometry x="1310" y="535" width="80" height="80" as="geometry" />
        </mxCell>
        <mxCell id="JFcsV1Ie_CkORW1EW0Ks-121" value="mp-weixin" style="whiteSpace=wrap;html=1;aspect=fixed;" vertex="1" parent="1">
          <mxGeometry x="1430" y="535" width="80" height="80" as="geometry" />
        </mxCell>
        <mxCell id="JFcsV1Ie_CkORW1EW0Ks-122" value="h5-df" style="whiteSpace=wrap;html=1;aspect=fixed;" vertex="1" parent="1">
          <mxGeometry x="1550" y="535" width="80" height="80" as="geometry" />
        </mxCell>
        <mxCell id="JFcsV1Ie_CkORW1EW0Ks-123" value="登录" style="swimlane;fontStyle=1;align=center;verticalAlign=top;childLayout=stackLayout;horizontal=1;startSize=26;horizontalStack=0;resizeParent=1;resizeParentMax=0;resizeLast=0;collapsible=1;marginBottom=0;whiteSpace=wrap;html=1;" vertex="1" parent="1">
          <mxGeometry x="1340" y="310" width="160" height="138" as="geometry">
            <mxRectangle x="316" y="240" width="70" height="30" as="alternateBounds" />
          </mxGeometry>
        </mxCell>
        <mxCell id="JFcsV1Ie_CkORW1EW0Ks-124" value="+&amp;nbsp;isLogin: bool" style="text;strokeColor=none;fillColor=none;align=left;verticalAlign=top;spacingLeft=4;spacingRight=4;overflow=hidden;rotatable=0;points=[[0,0.5],[1,0.5]];portConstraint=eastwest;whiteSpace=wrap;html=1;" vertex="1" parent="JFcsV1Ie_CkORW1EW0Ks-123">
          <mxGeometry y="26" width="160" height="26" as="geometry" />
        </mxCell>
        <mxCell id="JFcsV1Ie_CkORW1EW0Ks-125" value="+&amp;nbsp;getCode:&amp;nbsp;any" style="text;strokeColor=none;fillColor=none;align=left;verticalAlign=top;spacingLeft=4;spacingRight=4;overflow=hidden;rotatable=0;points=[[0,0.5],[1,0.5]];portConstraint=eastwest;whiteSpace=wrap;html=1;" vertex="1" parent="JFcsV1Ie_CkORW1EW0Ks-123">
          <mxGeometry y="52" width="160" height="26" as="geometry" />
        </mxCell>
        <mxCell id="JFcsV1Ie_CkORW1EW0Ks-126" value="+&amp;nbsp;login:&amp;nbsp;any" style="text;strokeColor=none;fillColor=none;align=left;verticalAlign=top;spacingLeft=4;spacingRight=4;overflow=hidden;rotatable=0;points=[[0,0.5],[1,0.5]];portConstraint=eastwest;whiteSpace=wrap;html=1;" vertex="1" parent="JFcsV1Ie_CkORW1EW0Ks-123">
          <mxGeometry y="78" width="160" height="26" as="geometry" />
        </mxCell>
        <mxCell id="JFcsV1Ie_CkORW1EW0Ks-127" value="+&amp;nbsp;afterLogin: () =&amp;gt; void" style="text;strokeColor=none;fillColor=none;align=left;verticalAlign=top;spacingLeft=4;spacingRight=4;overflow=hidden;rotatable=0;points=[[0,0.5],[1,0.5]];portConstraint=eastwest;whiteSpace=wrap;html=1;" vertex="1" parent="JFcsV1Ie_CkORW1EW0Ks-123">
          <mxGeometry y="104" width="160" height="26" as="geometry" />
        </mxCell>
        <mxCell id="JFcsV1Ie_CkORW1EW0Ks-130" value="" style="line;strokeWidth=1;fillColor=none;align=left;verticalAlign=middle;spacingTop=-1;spacingLeft=3;spacingRight=3;rotatable=0;labelPosition=right;points=[];portConstraint=eastwest;strokeColor=inherit;" vertex="1" parent="JFcsV1Ie_CkORW1EW0Ks-123">
          <mxGeometry y="130" width="160" height="8" as="geometry" />
        </mxCell>
        <mxCell id="JFcsV1Ie_CkORW1EW0Ks-131" value="Extends" style="endArrow=block;endSize=16;endFill=0;html=1;rounded=0;exitX=0.5;exitY=0;exitDx=0;exitDy=0;" edge="1" parent="1" source="JFcsV1Ie_CkORW1EW0Ks-121">
          <mxGeometry width="160" relative="1" as="geometry">
            <mxPoint x="1389" y="500" as="sourcePoint" />
            <mxPoint x="1419" y="460" as="targetPoint" />
          </mxGeometry>
        </mxCell>
        <mxCell id="JFcsV1Ie_CkORW1EW0Ks-132" value="Extends" style="endArrow=block;endSize=16;endFill=0;html=1;rounded=0;exitX=0.5;exitY=0;exitDx=0;exitDy=0;" edge="1" parent="1" source="JFcsV1Ie_CkORW1EW0Ks-120">
          <mxGeometry width="160" relative="1" as="geometry">
            <mxPoint x="1415" y="470" as="sourcePoint" />
            <mxPoint x="1379" y="460" as="targetPoint" />
          </mxGeometry>
        </mxCell>
        <mxCell id="JFcsV1Ie_CkORW1EW0Ks-133" value="Extends" style="endArrow=block;endSize=16;endFill=0;html=1;rounded=0;exitX=0.5;exitY=0;exitDx=0;exitDy=0;" edge="1" parent="1" source="JFcsV1Ie_CkORW1EW0Ks-122">
          <mxGeometry width="160" relative="1" as="geometry">
            <mxPoint x="1425" y="480" as="sourcePoint" />
            <mxPoint x="1500" y="450" as="targetPoint" />
          </mxGeometry>
        </mxCell>
        <mxCell id="JFcsV1Ie_CkORW1EW0Ks-134" value="Extends" style="endArrow=block;endSize=16;endFill=0;html=1;rounded=0;exitX=0.5;exitY=0;exitDx=0;exitDy=0;" edge="1" parent="1" source="JFcsV1Ie_CkORW1EW0Ks-119">
          <mxGeometry width="160" relative="1" as="geometry">
            <mxPoint x="1435" y="490" as="sourcePoint" />
            <mxPoint x="1349" y="460" as="targetPoint" />
          </mxGeometry>
        </mxCell>
        <mxCell id="JCpo4il6JC8woXUN9aue-1" value="" style="endArrow=open;endFill=1;endSize=12;html=1;rounded=0;entryX=-0.025;entryY=0.769;entryDx=0;entryDy=0;entryPerimeter=0;" edge="1" parent="1" target="JFcsV1Ie_CkORW1EW0Ks-125">
          <mxGeometry width="160" relative="1" as="geometry">
            <mxPoint x="980" y="380" as="sourcePoint" />
            <mxPoint x="1330" y="370" as="targetPoint" />
          </mxGeometry>
        </mxCell>
        <mxCell id="JCpo4il6JC8woXUN9aue-2" value="" style="endArrow=open;endFill=1;endSize=12;html=1;rounded=0;entryX=1;entryY=0.5;entryDx=0;entryDy=0;" edge="1" parent="1" target="JFcsV1Ie_CkORW1EW0Ks-106">
          <mxGeometry width="160" relative="1" as="geometry">
            <mxPoint x="810" y="380" as="sourcePoint" />
            <mxPoint x="1340" y="380" as="targetPoint" />
          </mxGeometry>
        </mxCell>
      </root>
    </mxGraphModel>
  </diagram>
  <diagram id="PaUstmof9E0MY2lUFWom" name="第 3 页">
    <mxGraphModel dx="1577" dy="822" grid="1" gridSize="10" guides="1" tooltips="1" connect="1" arrows="1" fold="1" page="1" pageScale="1" pageWidth="827" pageHeight="1169" math="0" shadow="0">
      <root>
        <mxCell id="0" />
        <mxCell id="1" parent="0" />
        <mxCell id="9BLjpIVopT5HUVezvgKf-2" value="判断能否拿到cookie？" style="rhombus;whiteSpace=wrap;html=1;" vertex="1" parent="1">
          <mxGeometry x="155" y="450" width="90" height="90" as="geometry" />
        </mxCell>
        <mxCell id="9BLjpIVopT5HUVezvgKf-3" value="initSDK" style="whiteSpace=wrap;html=1;aspect=fixed;" vertex="1" parent="1">
          <mxGeometry x="180" y="620" width="80" height="80" as="geometry" />
        </mxCell>
        <mxCell id="9BLjpIVopT5HUVezvgKf-5" value="静默登录，调用ams_gzh_login.fcgi接口获取登录态" style="whiteSpace=wrap;html=1;aspect=fixed;" vertex="1" parent="1">
          <mxGeometry x="390" y="450" width="120" height="120" as="geometry" />
        </mxCell>
        <mxCell id="9BLjpIVopT5HUVezvgKf-6" value="" style="endArrow=classic;html=1;rounded=0;exitX=1;exitY=0.5;exitDx=0;exitDy=0;entryX=-0.033;entryY=0.383;entryDx=0;entryDy=0;entryPerimeter=0;" edge="1" parent="1" source="9BLjpIVopT5HUVezvgKf-2" target="9BLjpIVopT5HUVezvgKf-5">
          <mxGeometry width="50" height="50" relative="1" as="geometry">
            <mxPoint x="330" y="610" as="sourcePoint" />
            <mxPoint x="380" y="560" as="targetPoint" />
          </mxGeometry>
        </mxCell>
        <mxCell id="9BLjpIVopT5HUVezvgKf-7" value="" style="endArrow=classic;html=1;rounded=0;exitX=0.5;exitY=1;exitDx=0;exitDy=0;entryX=0.25;entryY=0;entryDx=0;entryDy=0;" edge="1" parent="1" source="9BLjpIVopT5HUVezvgKf-2" target="9BLjpIVopT5HUVezvgKf-3">
          <mxGeometry width="50" height="50" relative="1" as="geometry">
            <mxPoint x="-30" y="610" as="sourcePoint" />
            <mxPoint x="20" y="560" as="targetPoint" />
          </mxGeometry>
        </mxCell>
        <mxCell id="9BLjpIVopT5HUVezvgKf-9" value="" style="endArrow=classic;html=1;rounded=0;exitX=-0.017;exitY=0.667;exitDx=0;exitDy=0;entryX=0.75;entryY=0;entryDx=0;entryDy=0;exitPerimeter=0;" edge="1" parent="1" source="9BLjpIVopT5HUVezvgKf-5" target="9BLjpIVopT5HUVezvgKf-3">
          <mxGeometry width="50" height="50" relative="1" as="geometry">
            <mxPoint x="380" y="650" as="sourcePoint" />
            <mxPoint x="240" y="610" as="targetPoint" />
            <Array as="points">
              <mxPoint x="240" y="530" />
            </Array>
          </mxGeometry>
        </mxCell>
        <mxCell id="9BLjpIVopT5HUVezvgKf-13" value="WX注入cookie" style="whiteSpace=wrap;html=1;aspect=fixed;" vertex="1" parent="1">
          <mxGeometry x="160" y="300" width="80" height="80" as="geometry" />
        </mxCell>
        <mxCell id="9BLjpIVopT5HUVezvgKf-14" value="启动公众号" style="whiteSpace=wrap;html=1;aspect=fixed;" vertex="1" parent="1">
          <mxGeometry x="160" y="150" width="80" height="80" as="geometry" />
        </mxCell>
        <mxCell id="9BLjpIVopT5HUVezvgKf-15" value="" style="endArrow=classic;html=1;rounded=0;exitX=0.5;exitY=1;exitDx=0;exitDy=0;entryX=0.5;entryY=0;entryDx=0;entryDy=0;" edge="1" parent="1" source="9BLjpIVopT5HUVezvgKf-14" target="9BLjpIVopT5HUVezvgKf-13">
          <mxGeometry width="50" height="50" relative="1" as="geometry">
            <mxPoint x="280" y="280" as="sourcePoint" />
            <mxPoint x="330" y="230" as="targetPoint" />
          </mxGeometry>
        </mxCell>
        <mxCell id="9BLjpIVopT5HUVezvgKf-16" value="" style="endArrow=classic;html=1;rounded=0;exitX=0.5;exitY=1;exitDx=0;exitDy=0;entryX=0.5;entryY=0;entryDx=0;entryDy=0;" edge="1" parent="1">
          <mxGeometry width="50" height="50" relative="1" as="geometry">
            <mxPoint x="199.5" y="380" as="sourcePoint" />
            <mxPoint x="199.5" y="450" as="targetPoint" />
          </mxGeometry>
        </mxCell>
        <mxCell id="9BLjpIVopT5HUVezvgKf-17" value="" style="strokeWidth=2;html=1;shape=mxgraph.flowchart.annotation_2;align=left;labelPosition=right;pointerEvents=1;" vertex="1" parent="1">
          <mxGeometry x="240" y="290" width="50" height="100" as="geometry" />
        </mxCell>
        <mxCell id="9BLjpIVopT5HUVezvgKf-18" value="opened" style="text;html=1;align=center;verticalAlign=middle;resizable=0;points=[];autosize=1;strokeColor=none;fillColor=none;" vertex="1" parent="1">
          <mxGeometry x="290" y="275" width="60" height="30" as="geometry" />
        </mxCell>
        <mxCell id="9BLjpIVopT5HUVezvgKf-19" value="&lt;p style=&quot;margin: 0px; font-stretch: normal; font-size: 13px; line-height: normal; font-family: &amp;quot;Helvetica Neue&amp;quot;;&quot;&gt;app_session_key&lt;/p&gt;" style="text;html=1;align=center;verticalAlign=middle;resizable=0;points=[];autosize=1;strokeColor=none;fillColor=none;" vertex="1" parent="1">
          <mxGeometry x="280" y="305" width="130" height="30" as="geometry" />
        </mxCell>
        <mxCell id="9BLjpIVopT5HUVezvgKf-20" value="uid" style="text;html=1;align=center;verticalAlign=middle;resizable=0;points=[];autosize=1;strokeColor=none;fillColor=none;" vertex="1" parent="1">
          <mxGeometry x="290" y="345" width="40" height="30" as="geometry" />
        </mxCell>
        <mxCell id="9BLjpIVopT5HUVezvgKf-21" value="appid" style="text;html=1;align=center;verticalAlign=middle;resizable=0;points=[];autosize=1;strokeColor=none;fillColor=none;" vertex="1" parent="1">
          <mxGeometry x="290" y="375" width="50" height="30" as="geometry" />
        </mxCell>
        <mxCell id="9BLjpIVopT5HUVezvgKf-24" value="判断能否拿到cookie？" style="rhombus;whiteSpace=wrap;html=1;" vertex="1" parent="1">
          <mxGeometry x="630" y="440" width="90" height="90" as="geometry" />
        </mxCell>
        <mxCell id="9BLjpIVopT5HUVezvgKf-25" value="initSDK" style="whiteSpace=wrap;html=1;aspect=fixed;" vertex="1" parent="1">
          <mxGeometry x="655" y="610" width="80" height="80" as="geometry" />
        </mxCell>
        <mxCell id="9BLjpIVopT5HUVezvgKf-26" value="静默登录，调用ams_gzh_login.fcgi接口获取登录态" style="whiteSpace=wrap;html=1;aspect=fixed;" vertex="1" parent="1">
          <mxGeometry x="865" y="440" width="120" height="120" as="geometry" />
        </mxCell>
        <mxCell id="9BLjpIVopT5HUVezvgKf-27" value="" style="endArrow=classic;html=1;rounded=0;exitX=1;exitY=0.5;exitDx=0;exitDy=0;entryX=-0.033;entryY=0.383;entryDx=0;entryDy=0;entryPerimeter=0;" edge="1" parent="1" source="9BLjpIVopT5HUVezvgKf-24" target="9BLjpIVopT5HUVezvgKf-26">
          <mxGeometry width="50" height="50" relative="1" as="geometry">
            <mxPoint x="805" y="600" as="sourcePoint" />
            <mxPoint x="855" y="550" as="targetPoint" />
          </mxGeometry>
        </mxCell>
        <mxCell id="9BLjpIVopT5HUVezvgKf-28" value="" style="endArrow=classic;html=1;rounded=0;exitX=0.5;exitY=1;exitDx=0;exitDy=0;entryX=0.25;entryY=0;entryDx=0;entryDy=0;" edge="1" parent="1" source="9BLjpIVopT5HUVezvgKf-24" target="9BLjpIVopT5HUVezvgKf-25">
          <mxGeometry width="50" height="50" relative="1" as="geometry">
            <mxPoint x="445" y="600" as="sourcePoint" />
            <mxPoint x="495" y="550" as="targetPoint" />
          </mxGeometry>
        </mxCell>
        <mxCell id="9BLjpIVopT5HUVezvgKf-29" value="" style="endArrow=classic;html=1;rounded=0;exitX=-0.017;exitY=0.667;exitDx=0;exitDy=0;entryX=0.75;entryY=0;entryDx=0;entryDy=0;exitPerimeter=0;" edge="1" parent="1" source="9BLjpIVopT5HUVezvgKf-26" target="9BLjpIVopT5HUVezvgKf-25">
          <mxGeometry width="50" height="50" relative="1" as="geometry">
            <mxPoint x="855" y="640" as="sourcePoint" />
            <mxPoint x="715" y="600" as="targetPoint" />
            <Array as="points">
              <mxPoint x="715" y="520" />
            </Array>
          </mxGeometry>
        </mxCell>
        <mxCell id="9BLjpIVopT5HUVezvgKf-30" value="大丰APP注入cookie" style="whiteSpace=wrap;html=1;aspect=fixed;" vertex="1" parent="1">
          <mxGeometry x="635" y="290" width="80" height="80" as="geometry" />
        </mxCell>
        <mxCell id="9BLjpIVopT5HUVezvgKf-31" value="启动开户Webview" style="whiteSpace=wrap;html=1;aspect=fixed;" vertex="1" parent="1">
          <mxGeometry x="635" y="140" width="80" height="80" as="geometry" />
        </mxCell>
        <mxCell id="9BLjpIVopT5HUVezvgKf-32" value="" style="endArrow=classic;html=1;rounded=0;exitX=0.5;exitY=1;exitDx=0;exitDy=0;entryX=0.5;entryY=0;entryDx=0;entryDy=0;" edge="1" parent="1" source="9BLjpIVopT5HUVezvgKf-31" target="9BLjpIVopT5HUVezvgKf-30">
          <mxGeometry width="50" height="50" relative="1" as="geometry">
            <mxPoint x="755" y="270" as="sourcePoint" />
            <mxPoint x="805" y="220" as="targetPoint" />
          </mxGeometry>
        </mxCell>
        <mxCell id="9BLjpIVopT5HUVezvgKf-33" value="" style="endArrow=classic;html=1;rounded=0;exitX=0.5;exitY=1;exitDx=0;exitDy=0;entryX=0.5;entryY=0;entryDx=0;entryDy=0;" edge="1" parent="1">
          <mxGeometry width="50" height="50" relative="1" as="geometry">
            <mxPoint x="674.5" y="370" as="sourcePoint" />
            <mxPoint x="674.5" y="440" as="targetPoint" />
          </mxGeometry>
        </mxCell>
        <mxCell id="9BLjpIVopT5HUVezvgKf-34" value="" style="strokeWidth=2;html=1;shape=mxgraph.flowchart.annotation_2;align=left;labelPosition=right;pointerEvents=1;" vertex="1" parent="1">
          <mxGeometry x="715" y="280" width="50" height="100" as="geometry" />
        </mxCell>
        <mxCell id="9BLjpIVopT5HUVezvgKf-35" value="opened" style="text;html=1;align=center;verticalAlign=middle;resizable=0;points=[];autosize=1;strokeColor=none;fillColor=none;" vertex="1" parent="1">
          <mxGeometry x="765" y="265" width="60" height="30" as="geometry" />
        </mxCell>
        <mxCell id="9BLjpIVopT5HUVezvgKf-36" value="&lt;p style=&quot;margin: 0px; font-stretch: normal; font-size: 13px; line-height: normal; font-family: &amp;quot;Helvetica Neue&amp;quot;;&quot;&gt;app_session_key&lt;/p&gt;" style="text;html=1;align=center;verticalAlign=middle;resizable=0;points=[];autosize=1;strokeColor=none;fillColor=none;" vertex="1" parent="1">
          <mxGeometry x="755" y="295" width="130" height="30" as="geometry" />
        </mxCell>
        <mxCell id="9BLjpIVopT5HUVezvgKf-37" value="uid" style="text;html=1;align=center;verticalAlign=middle;resizable=0;points=[];autosize=1;strokeColor=none;fillColor=none;" vertex="1" parent="1">
          <mxGeometry x="765" y="335" width="40" height="30" as="geometry" />
        </mxCell>
        <mxCell id="9BLjpIVopT5HUVezvgKf-38" value="appid" style="text;html=1;align=center;verticalAlign=middle;resizable=0;points=[];autosize=1;strokeColor=none;fillColor=none;" vertex="1" parent="1">
          <mxGeometry x="765" y="365" width="50" height="30" as="geometry" />
        </mxCell>
        <mxCell id="9BLjpIVopT5HUVezvgKf-39" value="&lt;font style=&quot;font-size: 24px;&quot;&gt;H5&lt;/font&gt;" style="text;html=1;align=center;verticalAlign=middle;resizable=0;points=[];autosize=1;strokeColor=none;fillColor=none;" vertex="1" parent="1">
          <mxGeometry x="175" y="80" width="50" height="40" as="geometry" />
        </mxCell>
        <mxCell id="9BLjpIVopT5HUVezvgKf-40" value="&lt;font size=&quot;5&quot;&gt;APP&lt;/font&gt;" style="text;html=1;align=center;verticalAlign=middle;resizable=0;points=[];autosize=1;strokeColor=none;fillColor=none;" vertex="1" parent="1">
          <mxGeometry x="640" y="80" width="70" height="40" as="geometry" />
        </mxCell>
      </root>
    </mxGraphModel>
  </diagram>
</mxfile>
